<svg width="230" height="180" viewBox="0 0 230 180" fill="none" xmlns="http://www.w3.org/2000/svg">
  <path d="M156.096 130.907V0.000208073C150.567 -0.0123194 145.051 0.540868 139.635 1.65087C123.659 4.90768 109.017 12.8254 97.5732 24.3962C86.1295 35.9669 78.4015 50.6673 75.3729 66.626C72.3444 82.5847 74.152 99.0801 80.5657 114.012C86.9794 128.945 97.7097 141.639 111.39 150.479C99.9191 146.294 89.5335 139.607 80.9937 130.907H0V147.273H50.9326C63.7863 147.277 76.3512 151.069 87.0448 158.173L103.546 169.1C114.231 176.202 126.788 179.994 139.635 180H141.275C154.129 179.999 166.695 176.206 177.387 169.1L193.888 158.173C204.579 151.064 217.146 147.271 230 147.273V130.907H156.096Z" fill="#FCFCFC"/>
</svg>
